<svg preserveAspectRatio="xMidYMid meet" data-bbox="-0.012 -0.01 258.484 853.189" viewBox="-0.012 -0.01 258.484 853.189" xmlns="http://www.w3.org/2000/svg" data-type="shape" role="presentation" aria-hidden="true" aria-label="">
    <g>
        <path d="M256.37 256.67c0 7.5.27 15-.06 22.48-.46 10.34-2.36 20.43-7.12 29.78-4.2 8.24-10.03 14.9-18.74 18.55-6.93 2.91-14.13 3.65-21.44 1.64-8.5-2.33-14.44-7.85-18.64-15.45l-2.88-5.19c-1.89.89-3.86 1.66-5.67 2.7-8.78 5.07-17.49 10.25-26.26 15.34-4.04 2.35-8.2 4.53-9.88 9.37-.1.27-.44.46-.67.69-.15-.26-.35-.5-.43-.78-.09-.31-.08-.66-.08-.99 0-12.99 0-25.99.01-38.98 0-.47.22-.95.34-1.42.44.39 1.19.72 1.27 1.17 1.03 5.32 3.18 5.44 7.85 2.79 9.54-5.41 19.16-10.67 28.77-15.96 1.36-.75 2.38-1.52 2.68-3.27.54-3.09 1.34-6.14 2.2-9.15.33-1.14.69-1.84-.97-1.84-11.82.02-23.64-.03-35.46.04-2.96.02-3.84.99-4.55 4.23-.4 1.81.22 3.97-1.78 5.23-.13-1.8-.36-3.6-.36-5.41-.03-12.33-.02-24.65-.01-36.98 0-1.33 0-2.67.06-4 .01-.31.24-.6.37-.9.35.32.87.57 1.02.97.29.76.4 1.6.53 2.42.87 5.72 1.41 6.2 7.38 6.21 8.99.01 17.98 0 26.97 0h66.43c6.26 0 6.3-.05 7.2-6.14.14-.97.42-1.93.73-2.86.08-.24.49-.38.75-.56.15.26.42.51.44.78.06 1.33.07 2.66.07 4v21.49h-.09Zm-33.54 11.49h-8.47c-6.98 0-13.95-.03-20.93.01-3.06.02-2.96.12-4.17 3.05-1.37 3.3-1.79 6.7-1.74 10.22.12 8.4 4.79 14.71 12.68 17.78 6.09 2.37 12.37 1.97 18.65 2 8.57.05 16.37-2.58 23.4-7.24 7.92-5.26 12.68-12.49 12.22-22.46-.15-3.28-.08-3.34-3.25-3.35-9.47-.03-18.93-.01-28.4-.01Z"></path>
        <path d="M114.29 133.72c0 6.83.14 13.66-.03 20.48-.26 10.19-1.92 20.17-6.16 29.51-4.4 9.68-10.82 17.63-21.28 21.15-11.64 3.93-22.68 2.86-32.1-5.72-3.56-3.24-6.14-7.37-8.1-11.85-1.19-2.71-1.34-2.65-3.91-1.15-10.6 6.23-21.17 12.5-31.79 18.68-3.09 1.8-5.9 3.74-6.93 7.43-.11.4-.65.68-.99 1.02-.2-.54-.57-1.09-.57-1.63-.04-5.66-.03-11.32-.03-16.98 0-7.33 0-14.65.03-21.98 0-.54.38-1.07.59-1.6.33.35.77.65.96 1.06 2.51 5.63 3.08 5.82 8.21 2.97 8.85-4.93 17.72-9.82 26.58-14.74 2.67-1.48 5.09-2.99 4.78-6.77-.13-1.55.75-3.2 1.25-4.78 1.25-3.92 1.27-3.94-2.54-3.94-10.32-.01-20.64 0-30.95 0-1 0-2.01-.05-2.99.1-1.8.28-3 1.33-3.48 3.13-.13.48-.21.97-.32 1.45-.41 1.67.43 3.77-1.66 4.87-.15-1.62-.43-3.24-.43-4.86-.04-12.82-.02-25.64-.02-38.46 0-1.16.06-2.32.12-3.49 0-.15.21-.42.24-.41.25.09.64.2.69.38.39 1.43.75 2.87 1.04 4.33.8 4 1.55 4.73 5.61 4.73 32.29.02 64.57.02 96.86 0 3.94 0 4.49-.51 5.24-4.38.16-.81.06-1.69.3-2.47.28-.92.81-1.76 1.23-2.63.21.86.59 1.72.6 2.58.05 7.99.03 15.98.03 23.98h-.06Zm-33.96 11.15c-9.65 0-19.29-.03-28.94.01-3.09.01-2.98.14-4.22 3.05-1.55 3.62-1.98 7.39-1.69 11.23.59 8.01 4.51 13.63 12.08 16.69 3.3 1.33 6.71 1.72 10.17 2.16 10.72 1.37 20.92-.45 30.2-5.84 9.12-5.3 15.22-12.82 14.45-24.25-.2-2.96-.11-3.03-3.1-3.04-9.65-.03-19.29-.01-28.94-.01Z"></path>
        <path d="M2.4 369.08c0-11.52 0-20.68.02-29.84 0-.47.23-.95.36-1.42.43.42 1.12.79 1.23 1.28.36 1.61.4 3.3.75 4.91.38 1.79 1.42 2.95 3.47 2.82.99-.06 2 0 3 0h94.39q5.95 0 6.76-5.87c.05-.33-.01-.7.12-.99.33-.71.75-1.38 1.13-2.07.24.65.7 1.3.7 1.94.01 15.32.49 30.67-.19 45.96-.75 16.71-6.01 31.94-18.47 43.89-8.53 8.18-18.8 12.92-30.39 14.86-8.07 1.35-16.14 1.57-24.27.13-13.53-2.4-23.41-9.89-30.18-21.56-4.2-7.24-6.41-15.18-7.56-23.52-1.51-10.97-.36-21.94-.85-30.54Zm56.98 6.47H23.45c-4.82 0-9.65-.04-14.47.01-4.09.04-4.51.47-4.62 4.63-.07 2.33-.03 4.66 0 6.99.12 9.71 4.73 16.67 13.03 21.41 7.21 4.12 15.13 6.13 23.24 6.68 12.92.88 25.92 1.16 38.68-1.82 7.63-1.78 14.92-4.42 21.25-9.31 8.75-6.77 12.35-15.72 11.85-26.58-.07-1.5-.69-2.07-2.12-2.02-1.16.04-2.33 0-3.49 0H59.39Z"></path>
        <path d="M240.83 95.97c-10.32 10.33-21.25 17.01-34.49 19.14-15.1 2.43-28.52-1.56-40.48-11.13-6.45-5.16-11.69-11.25-15.81-18.33-9.05-15.54-9.66-31.73-2.12-47.77 7.45-15.84 19.38-27.57 35.93-34.06 15.35-6.02 30.44-4.97 44.57 3.34 13.28 7.81 22.8 19.11 27.58 33.99 4.71 14.66 2.47 28.55-5.06 41.71-2.97 5.2-6.59 9.96-10.11 13.1Zm-74.18 5.92c4.48 4.39 9.14 5.89 14.63 4.84 3.82-.72 7.3-2.19 10.5-4.34 5.66-3.79 10.55-8.43 15.23-13.38 5.14-5.44 9.92-11.13 14.12-17.32 6.44-9.5 11.98-19.45 15.34-30.5 1.85-6.09 2.95-12.22 2.17-18.64-.96-7.86-8.28-14.39-16.9-13.44-1.96.22-3.93.71-5.79 1.36-5.89 2.05-10.86 5.68-15.38 9.85-8.08 7.45-14.93 15.94-21.12 25.04-6.77 9.96-12.01 20.57-15.36 32.13-1.31 4.51-2.01 9.09-1.72 13.78.26 4.25 1.42 8.19 4.28 10.62Z"></path>
        <path d="M19.28 233.58c7.57-8.34 16.65-14.09 27.31-16.88 17.18-4.49 32.84-1.16 46.72 10.17 8.79 7.17 15.54 15.77 19.47 26.48 5.14 14.03 4.24 27.7-2.58 40.95-6.81 13.25-17 23.27-30.18 30.05-18.3 9.41-36.44 8.27-53.29-3.27-11.72-8.03-20.27-18.98-24.26-33.01-4-14.07-1.72-27.27 5.25-39.87 3.08-5.56 6.98-10.49 11.56-14.63Zm43.71 72.26c5.62-6.19 12.07-13.55 17.39-21.78 5.96-9.21 11.05-18.86 14.08-29.49 1.42-4.97 2.45-10.01 2.12-15.22-.71-11.34-10.23-17.85-20.44-15.03-2.84.79-5.68 1.94-8.22 3.44-5.88 3.47-11.24 7.72-15.62 12.97-5.19 6.23-10.36 12.5-15.08 19.09-6.89 9.62-12.07 20.17-15.35 31.58-1.66 5.77-2.65 11.65-1.44 17.71 1.67 8.32 10.36 14.55 19.21 12.06 2.22-.62 4.43-1.41 6.49-2.44 5.98-2.99 11.12-7.17 16.85-12.88Z"></path>
        <path d="M114.28 28.07c0 6.99.17 13.99-.04 20.98-.31 9.9-2.46 19.43-7.25 28.17-6.24 11.39-15.51 19.19-28.54 21.19-13.45 2.07-25.49-.93-34.25-12.38-4.78-6.25-7.25-13.46-7.79-21.2-.53-7.62-.76-15.3 1.8-22.71.51-1.47-.09-2.2-1.65-2.2-9.32 0-18.64.02-27.96-.02-2 0-3.08.95-3.57 2.78-.17.64-.35 1.27-.52 1.91-.43 1.67.46 3.77-1.63 4.88-.16-1.76-.46-3.53-.47-5.29-.04-13.49-.02-26.98.01-40.46 0-.49.42-.98.65-1.47.26.41.67.78.77 1.22.36 1.61.53 3.28.94 4.87.71 2.74 1.36 3.22 4.12 3.35 1 .05 2 0 3 0h94.37c4.65-.05 5.27-.65 6.04-5.33.23-1.4.81-2.75 1.23-4.12 1.64 1.19.73 2.91.75 4.34.11 7.16.05 14.32.05 21.48h-.07ZM77.15 39.91H46.22c-6.08 0-6.39.3-6.88 6.36-.05.66-.05 1.33-.14 1.99-.71 5.3 1.01 9.78 4.64 13.59 5.17 5.44 11.81 7.73 19.01 8.86 6.12.96 12.19.76 18.34.08 7.39-.82 14.27-2.89 20.5-6.95 7.6-4.96 11.15-12.02 10.72-21.09-.13-2.73-.12-2.81-2.83-2.82-10.81-.04-21.62-.01-32.43-.02Z"></path>
        <path d="M.53 815.22c.43-7.37 1.73-13.8 5.87-19.36.5-.66.9-1.39 1.38-2.07 1.27-1.8.97-3.41-.5-4.93-1.27-1.32-2.54-2.64-3.78-3.99-.78-.86-1.58-1.72-2.22-2.68-1.41-2.1-1.01-3.26 1.57-3.89 3.05-.74 6.17-1.27 9.27-1.76 8.51-1.35 17.02-2.64 25.54-3.94.49-.07 1-.09 1.49-.03.27.03.7.26.72.44.03.28-.14.73-.36.87-1.39.89-2.8 1.77-4.25 2.55-7.04 3.79-13.83 7.94-19.99 13.07-4.8 3.99-8.97 8.47-11 14.51-1.27 3.77-2.2 7.56-1.25 11.68 2.3 9.96 9.79 14.97 19.88 13.39 8.28-1.3 13.95-5.98 17.54-13.21 2.35-4.74 4.11-9.78 6.08-14.7 3.1-7.75 6.71-15.17 12.51-21.37 5.09-5.44 11.22-8.63 18.62-9.51 4.81-.57 9.57-.55 14.23.88 11.11 3.4 17.81 11.3 21.42 21.91 3.04 8.94 3.8 18.16 1.03 27.37-.76 2.52-1.93 4.95-3.15 7.29-1.04 1.99-1.01 3.77.12 5.64 1.37 2.28 2.77 4.54 4.01 6.89 1.67 3.15 1.27 4.08-2.1 4.9-5.95 1.45-11.93 2.8-17.89 4.21-5 1.18-9.98 2.39-14.99 3.54-.57.13-1.22-.07-1.84-.11.3-.52.48-1.22.92-1.52 2.34-1.58 4.76-3.04 7.14-4.57 6.31-4.04 12.3-8.49 17.68-13.74 5.84-5.69 9.35-12.58 9.76-20.65.39-7.63-3.8-15.01-12.62-16.79-12.91-2.61-22.25 2.5-27.63 13.28-1.99 4-3.57 8.21-5.2 12.38-2.72 6.99-5.9 13.73-10.44 19.75-5.89 7.81-13.84 11.91-23.48 12.21-10.42.33-19.14-3.68-25.59-12.01-4.47-5.77-7.01-12.38-7.7-19.68-.22-2.31-.57-4.61-.79-6.29Z"></path>
        <path d="M65.57 591.07c-9.89.22-19.59 1.21-28.96 4.45-8.53 2.95-16.01 7.41-20.78 15.41-7.12 11.97-5.81 28.34 5.17 37.78 3.73 3.21 8.01 5.29 12.69 6.64 1.27.37 2.55.7 3.81 1.11.24.08.39.43.58.66-.29.14-.61.43-.87.39-2.77-.45-5.66-.58-8.29-1.49-13.86-4.8-22.79-14.36-26.75-28.52-3.42-12.26-2.85-24.4 1.93-36.1 5.84-14.29 16.77-23.29 31.38-27.76 10.11-3.1 20.43-3.76 31.01-2.37 10.1 1.32 19.4 4.41 27.72 10.22 11.89 8.3 18.99 19.64 21.3 34.04 1.09 6.81 1.44 13.58-.25 20.26-.93 3.66-2.33 7.26-3.95 10.68-1.16 2.43-1.19 4.35.52 6.41 1.06 1.28 1.92 2.71 2.85 4.09 2 2.97 1.86 3.57-1.37 4.29-10.34 2.32-20.7 4.57-31.07 6.8-.53.11-1.16-.21-1.74-.33.36-.65.56-1.63 1.11-1.91 4.28-2.19 8.66-4.17 12.95-6.35 4.35-2.21 7.98-5.39 11.28-8.95 9.7-10.49 10.81-27.12-1.53-37.72-6.81-5.85-14.83-8.7-23.42-10.15-5.05-.85-10.22-1.06-15.33-1.55Z"></path>
        <path d="M59.27 727.26H11.85c-1 0-2-.03-2.99 0-3.12.11-3.65.54-4.25 3.64-.22 1.14-.12 2.35-.43 3.46-.2.7-.88 1.27-1.34 1.89-.15-.62-.42-1.24-.42-1.86-.03-6.99-.02-13.98-.02-20.97 0-7.49 0-14.98.02-22.47 0-.64.25-1.27.39-1.91.43.63 1.08 1.2 1.25 1.89.38 1.61.44 3.29.79 4.91.39 1.82 1.44 2.93 3.5 2.7.82-.09 1.66-.01 2.49-.01 32.11 0 64.22.01 96.33-.01 5.79 0 5.09.9 5.2-5.41.07-4.26-1.74-7.71-4.49-10.75-4.98-5.51-11.15-9.41-17.6-12.91-3.06-1.66-6.17-3.24-9.22-4.92-.3-.17-.57-.9-.45-1.19.13-.29.8-.55 1.18-.49 9 1.37 18 2.8 27 4.19 1.8.28 3.64.34 5.44.65 1.69.29 2.21 1.15 1.46 2.76-1.23 2.67-1.34 5.44-1.34 8.29.02 22.14.03 44.28 0 66.42 0 3.51-.08 7.02 1.48 10.26.78 1.62-.09 2.19-1.34 2.43-2.11.4-4.27.58-6.39.91-7.69 1.2-15.37 2.44-23.06 3.63-1.14.18-2.32.17-3.49.18-.29 0-.59-.23-.88-.36.21-.38.33-.94.65-1.11 1.6-.87 3.3-1.57 4.88-2.47 5.34-3.02 10.72-5.97 15.92-9.2 2.08-1.29 3.9-3.12 5.58-4.94 4.12-4.44 5.25-9.87 4.55-15.73-.06-.54-.96-1.27-1.57-1.4-1.12-.23-2.32-.08-3.48-.08H59.28Z"></path>
        <path d="M256.43 148.73c0 7.33 0 14.66-.02 21.98 0 .38-.36.75-.55 1.13-.32-.35-.84-.65-.92-1.05-.3-1.46-.3-2.98-.68-4.42-.97-3.71-1.76-4.15-4.99-4.31-12.28-.59-24.56-1.2-36.81-2.16-12.59-.99-25.18-1.88-37.82-1.73-4.85.06-9.6.66-14.23 2.08-9.87 3.03-15.03 11.46-14.97 20.56.1 13.62 7.56 24.44 20.98 28.03 7.14 1.91 14.51 1.41 21.81.84 1.15-.09 2.3-.36 3.45-.42 8.8-.45 17.6-.79 26.39-1.33 7.62-.46 15.22-1.27 22.84-1.68 6.4-.34 10.62-3.32 12.63-9.4.47-1.41.83-2.86 1.33-4.25.15-.41.64-.69.98-1.04.19.38.55.77.55 1.15.02 9.66 0 19.32-.02 28.97 0 .3-.22.61-.34.91-.37-.27-.94-.45-1.08-.81-.66-1.69-1.08-3.48-1.8-5.14-2.72-6.26-7.48-8.59-14.46-8.23-8.45.44-16.89 1.12-25.34 1.71-8.44.59-16.88 1.32-25.33 1.74-8.12.4-16.29.89-24.2-1.8-12.12-4.13-18.36-12.92-20.36-25.3-1.52-9.35-.86-18.57 1.17-27.69 1.87-8.43 5.4-16.09 12.44-21.58 6.8-5.3 14.73-6.63 23.07-6.1 5.96.38 11.89 1.16 17.85 1.54 8.29.53 16.6.79 24.89 1.3 7.29.45 14.56 1.09 21.84 1.63 1.33.1 2.66.14 3.99.17 4.54.12 4.77-.05 5.6-4.31.16-.81.06-1.69.3-2.47.29-.92.82-1.76 1.24-2.63.2.87.57 1.74.58 2.61.05 7.16.03 14.32.03 21.48h-.03Z"></path>
        <path d="M114.34 481.19c0 7.49 0 14.99-.02 22.48 0 .42-.33.83-.51 1.25-.29-.39-.74-.75-.83-1.18-.36-1.78-.52-3.61-.93-5.38-.66-2.82-1.53-3.53-4.48-3.71-6.96-.42-13.93-.72-20.9-1.16-13.58-.86-27.16-1.83-40.75-2.67-7.65-.48-15.33-.27-22.88.94-9.52 1.52-17.12 6.18-19.14 16.32-1.8 9.01.03 17.55 6.24 24.72 5.42 6.25 12.46 9.44 20.59 9.62 7.12.16 14.27-.44 21.4-.7.67-.02 1.33-.04 2-.08 14.1-.76 28.2-1.48 42.29-2.3 2.14-.12 4.32-.43 6.36-1.07 3.79-1.19 6.78-3.5 8.22-7.39.69-1.86 1.24-3.78 1.92-5.64.16-.43.61-.75.92-1.12.17.44.48.87.48 1.31.03 9.49.02 18.98 0 28.47 0 .43-.3.86-.47 1.3-.36-.31-.9-.55-1.06-.94-.6-1.54-.99-3.17-1.63-4.69-2.19-5.2-5.82-8.45-11.79-8.18-5.8.26-11.6.63-17.41.93-1.66.09-3.33.11-4.99.19-7.96.4-15.93.85-23.89 1.22-7.13.33-14.26.71-21.4.79-4.87.06-9.55-1.25-13.92-3.35-9.28-4.45-14.32-12.24-16.15-22.05-2.26-12.14-1.3-24.19 2.87-35.82 3.55-9.89 10.03-17.13 20.53-20.03 1.58-.44 3.26-.83 4.88-.79 6.97.18 13.93.54 20.89.82 1.83.08 3.66.12 5.49.21 7.8.4 15.6.76 23.39 1.24 8.61.53 17.21 1.28 25.83 1.75 5.87.32 5.84.17 6.9-5.58.23-1.26.85-2.44 1.28-3.66.23 1.32.64 2.64.66 3.96.07 6.66.03 13.32.03 19.98h-.01Z"></path>
    </g>
</svg>